<svg width="96" height="120" viewBox="0 0 96 120" fill="none" xmlns="http://www.w3.org/2000/svg">
<g clip-path="url(#clip0_370_36421)">
<path d="M26.664 1.25195L11.16 18.936C10.896 19.236 10.76 19.612 10.708 20.004H26.664V1.25195Z" fill="#FFD700"/>
<path d="M58.6641 40.0039H70.6641V48.0039H58.6641V40.0039Z" fill="#FFD700"/>
<path d="M73.7439 62.4279C83.2999 57.5919 87.8718 46.2439 83.8998 36.0639C80.7198 27.9279 73.0229 22.6719 64.2918 22.6719C61.6678 22.6719 59.0878 23.1599 56.6278 24.1199C51.3838 26.1679 47.2559 30.1319 45.0039 35.2839C42.7479 40.4359 42.6318 46.1599 44.6798 51.3999C47.8598 59.5319 55.5598 64.7959 64.2918 64.7959C66.2438 64.7959 68.1558 64.4359 70.0268 63.8999L81.2628 92.6399C81.5678 93.4269 82.3268 93.9079 83.1268 93.9079C83.3748 93.9079 83.6148 93.8589 83.8549 93.7709C84.8829 93.3639 85.3918 92.2039 84.9918 91.1789L73.7439 62.4279ZM56.6638 52.0039C55.5638 52.0039 54.6638 51.1079 54.6638 50.0039V38.0039C54.6638 36.8999 55.5638 36.0039 56.6638 36.0039H72.6639C73.7639 36.0039 74.6639 36.8999 74.6639 38.0039V50.0039C74.6639 51.1079 73.7639 52.0039 72.6639 52.0039H56.6638Z" fill="#FFD700"/>
<path d="M64.284 68.796C63.132 68.796 62 68.692 60.88 68.54C60.524 68.492 60.172 68.432 59.82 68.364C59.048 68.228 58.288 68.048 57.536 67.84C57.164 67.744 56.792 67.649 56.428 67.527C55.485 67.219 54.557 66.859 53.664 66.443C53.172 66.212 52.716 65.939 52.244 65.683C51.816 65.443 51.38 65.207 50.968 64.943C50.424 64.603 49.901 64.244 49.389 63.864C49.124 63.664 48.864 63.448 48.604 63.236C47.396 62.267 46.272 61.195 45.256 60.004H22.664C21.56 60.004 20.664 59.108 20.664 58.004C20.664 56.9 21.56 56.004 22.664 56.004H42.456C41.888 54.996 41.372 53.956 40.948 52.856C40.328 51.268 39.876 49.645 39.592 48.004H22.664C21.56 48.004 20.664 47.108 20.664 46.004C20.664 44.9 21.56 44.004 22.664 44.004H39.244C39.228 42.704 39.316 41.404 39.504 40.108C39.52 39.988 39.548 39.872 39.564 39.752C39.768 38.492 40.044 37.236 40.448 36H22.664C21.56 36 20.664 35.1 20.664 34C20.664 32.896 21.56 32 22.664 32H42.272C42.972 30.68 43.764 29.428 44.676 28.276C44.684 28.268 44.692 28.26 44.696 28.248C45.58 27.132 46.524 26.076 47.58 25.132C47.84 24.892 48.144 24.704 48.412 24.476C49.264 23.776 50.107 23.068 51.052 22.484C52.344 21.672 53.712 20.964 55.168 20.396C58.092 19.252 61.164 18.672 64.288 18.672C65.412 18.672 66.519 18.768 67.611 18.92C68.027 18.976 68.439 19.052 68.851 19.124C69.484 19.24 70.103 19.384 70.72 19.552C72.083 19.908 73.408 20.36 74.667 20.932V2C74.667 0.896 73.771 0 72.667 0H30.667V22C30.667 23.1 29.771 24 28.667 24H10.667V94C10.667 95.1 11.567 96 12.667 96H72.667C73.771 96 74.667 95.1 74.667 94V86.764L67.547 68.533C66.416 68.712 65.34 68.796 64.284 68.796Z" fill="#FFD700"/>
</g>
<defs>
<clipPath id="clip0_370_36421">
<rect width="96" height="120" fill="white"/>
</clipPath>
</defs>
</svg>
