<svg width="20" height="20" viewBox="0 0 20 20" fill="none" xmlns="http://www.w3.org/2000/svg">
<path d="M18.7339 6.67561H18.5701C18.0982 6.67561 17.6588 6.4174 17.4483 5.99538C17.3572 5.81203 17.2563 5.63194 17.151 5.45619C16.9091 5.05045 16.9265 4.54269 17.1793 4.14237L17.2682 4.0035C17.6436 3.4144 17.4711 2.6311 16.8798 2.25355L13.8606 0.331102C13.2715 -0.0442834 12.4882 0.128226 12.1106 0.719486L12.0249 0.855098C11.7635 1.26628 11.2894 1.48 10.8033 1.43226C10.5397 1.4073 10.2696 1.3932 10.0005 1.3932C9.85081 1.3932 9.7011 1.39646 9.55354 1.40405C9.0675 1.429 8.60641 1.19575 8.36231 0.7759L8.28202 0.633777C7.93161 0.0284002 7.15698 -0.1799 6.5516 0.169434L3.45542 1.95843C2.85004 2.30885 2.64174 3.08348 2.99108 3.68885L3.07136 3.83098C3.30786 4.23891 3.30135 4.74989 3.04098 5.1448C2.86306 5.41711 2.69923 5.69702 2.55169 5.98886C2.34014 6.41088 1.90185 6.66909 1.4299 6.66909H1.26608C0.566328 6.66909 0 7.23542 0 7.93517V11.5121C0 12.2119 0.566328 12.7782 1.26608 12.7782H1.4299C1.90182 12.7782 2.3412 13.0364 2.55169 13.4584C2.64282 13.6418 2.74372 13.8219 2.84895 13.9976C3.09089 14.4033 3.07353 14.9111 2.82075 15.3114L2.73179 15.4503C2.3564 16.0394 2.52891 16.8227 3.12017 17.2002L6.13942 19.1227C6.72852 19.4981 7.51181 19.3256 7.88937 18.7343L7.97507 18.5987C8.23653 18.1875 8.71062 17.9738 9.19666 18.0215C9.46029 18.0465 9.73044 18.0606 9.99948 18.0606C10.1492 18.0606 10.2989 18.0573 10.4465 18.0497C10.9325 18.0248 11.3936 18.258 11.6377 18.6779L11.718 18.82C12.0684 19.4254 12.843 19.6337 13.4484 19.2844L16.5446 17.4954C17.15 17.1449 17.3583 16.3703 17.0089 15.7649L16.9286 15.6228C16.6921 15.2149 16.6986 14.7039 16.959 14.309C17.1369 14.0367 17.3008 13.7568 17.4483 13.4649C17.6599 13.0429 18.0981 12.7847 18.5701 12.7847H18.7339C19.4337 12.7847 20 12.2184 20 11.5186V7.94169C20 7.24194 19.4337 6.67561 18.7339 6.67561ZM10.0017 13.8967C7.7017 13.8967 5.83566 12.0307 5.83566 9.73068C5.83566 7.43071 7.7017 5.56467 10.0017 5.56467C12.3017 5.56467 14.1677 7.43071 14.1677 9.73068C14.1677 12.0307 12.3017 13.8967 10.0017 13.8967Z" fill="#9CA7B6"/>
</svg>
